<svg width="164" height="25" viewBox="0 0 164 25" fill="none" xmlns="http://www.w3.org/2000/svg">
<path d="M51.1056 14.5473H36.9565V24.4441H43.5492V18.6009H55.4804C55.4804 18.6009 56.4747 18.662 57.3007 17.8513C58.1114 17.0559 58.0502 16.0311 58.0502 16.0311V11.1209C58.0502 11.1209 58.0961 10.0808 57.2701 9.28537C56.4594 8.48996 55.4804 8.56644 55.4804 8.56644H29.4766V12.62H51.0903C51.488 12.62 51.8704 12.9871 51.8704 13.5837C51.901 14.1802 51.5186 14.5473 51.1056 14.5473Z" fill="white"/>
<path d="M36.9099 24.49V14.5015H51.105C51.4568 14.5015 51.8392 14.1803 51.8392 13.5837C51.8392 12.9872 51.4568 12.6659 51.105 12.6659H29.4453V12.62V8.52062H55.4797C55.4797 8.52062 56.4893 8.45943 57.3 9.25484C58.126 10.0655 58.0954 11.121 58.0801 11.121V16.0311C58.0801 16.0464 58.126 17.0866 57.3153 17.882C56.4893 18.6927 55.4797 18.6468 55.4644 18.6468H43.5791V24.49H36.9099ZM37.0017 14.5933V24.4135H43.518V18.5703H55.495C55.5103 18.5703 56.4893 18.6162 57.2847 17.8361C58.0648 17.0713 58.0342 16.0617 58.0342 16.0464V11.1363C58.0342 11.121 58.0648 10.0961 57.2694 9.33132C56.474 8.56651 55.5103 8.6124 55.5103 8.6124H29.5524V12.5895H51.1355C51.5332 12.5895 51.9616 12.9413 51.9616 13.599C51.9616 14.2415 51.5332 14.5933 51.1355 14.5933H37.0017Z" fill="white"/>
<path d="M116.559 24.398H123.091V8.61218H116.59V16.1074L109.11 8.61218H102.578V20.1303L91.2592 4.78809L80.6588 18.9372L87.3892 18.9678L91.1368 13.8741L95.8481 20.421H78.3949L77.1406 18.5548H78.0737C78.089 18.5548 79.068 18.5854 79.8634 17.8206C80.6435 17.0558 80.6129 16.0462 80.6129 16.0309V11.1208C80.6129 11.1055 80.6588 10.1265 79.8481 9.31581C79.0986 8.56628 78.089 8.59688 78.089 8.59688H59.5957V24.398H66.112V18.5548H69.5536L69.5689 18.5701L73.6837 24.398H109.095V16.8875L109.171 16.964L116.559 24.398ZM73.6989 14.5931H66.1425H66.0967V12.5892H73.6989C73.7142 12.5892 74.525 12.6045 74.525 13.5988C74.5097 14.5625 73.6989 14.5931 73.6989 14.5931Z" fill="white"/>
<path d="M153.453 8.5659H127.174C127.174 8.5659 126.119 8.50471 125.308 9.36131C124.559 10.1567 124.604 11.1204 124.604 11.1204V21.8737C124.604 21.8737 124.543 22.9598 125.415 23.7552C126.241 24.52 127.174 24.4435 127.174 24.4435H142.348C142.348 24.4435 143.373 24.5047 144.184 23.6787C144.964 22.868 144.918 21.889 144.918 21.889V14.5468H134.165V18.6003H138.325V19.4875C138.325 19.4875 138.341 19.7781 138.05 20.0994C137.775 20.39 137.362 20.39 137.362 20.39H132.176C132.176 20.39 131.794 20.4053 131.518 20.13C131.197 19.8087 131.212 19.4263 131.212 19.4263V13.5831C131.212 13.5831 131.197 13.2313 131.457 12.9407C131.763 12.5888 132.176 12.6194 132.176 12.6194H146.845V24.4435H162.998V20.3747H153.438V8.5659H153.453Z" fill="white"/>
<path d="M127.129 24.505C126.915 24.505 126.104 24.4591 125.385 23.8014C124.513 23.0059 124.559 21.9046 124.574 21.8893V11.136C124.574 11.1207 124.544 10.1417 125.293 9.34629C126.104 8.4897 127.175 8.53559 127.19 8.53559H153.515V20.3597H163.075V24.505H146.83V12.6809H132.207C132.207 12.6809 131.809 12.6656 131.519 12.9868C131.274 13.2622 131.289 13.5987 131.289 13.5987V19.4419C131.289 19.4419 131.274 19.809 131.58 20.1149C131.84 20.375 132.207 20.3597 132.207 20.3597H137.393C137.393 20.3597 137.79 20.3597 138.05 20.0843C138.326 19.7937 138.31 19.5184 138.31 19.5184V18.6771H134.15V14.5318H144.98V21.9199C144.98 21.9352 145.025 22.9295 144.23 23.7402C143.419 24.5815 142.379 24.5203 142.364 24.5203H127.19C127.175 24.4897 127.159 24.505 127.129 24.505ZM127.144 8.61207C126.96 8.61207 126.043 8.65795 125.339 9.39218C124.62 10.157 124.651 11.1207 124.651 11.1207V21.874C124.651 21.8893 124.605 22.9448 125.446 23.7249C126.257 24.4591 127.175 24.4132 127.175 24.4132H142.349C142.364 24.4132 143.373 24.4591 144.154 23.6637C144.918 22.8683 144.872 21.9199 144.872 21.9046V14.6082H134.211V18.5853H138.371V19.5184C138.371 19.5337 138.387 19.8243 138.081 20.1455C137.79 20.4515 137.377 20.4515 137.362 20.4515H132.176C132.161 20.4515 131.763 20.4667 131.488 20.1761C131.152 19.8396 131.182 19.4572 131.182 19.4419V13.614C131.182 13.5987 131.167 13.2469 131.442 12.9409C131.763 12.5738 132.176 12.6044 132.207 12.6044H146.907V24.4132H162.983V20.4362H153.423V8.61207H127.175C127.175 8.61207 127.159 8.61207 127.144 8.61207Z" fill="white"/>
<path d="M15.2658 24.75H0L26.0038 0.75H41.4378H48.5201L41.7897 6.94503H28.0994V14.2414H33.7897L22.3633 24.75H15.2658ZM15.9388 24.1381H22.1032L32.1988 14.8533H27.4723V13.6601L15.9388 24.1381ZM8.73422 24.1381H15.021L27.4723 12.8341V6.99092L8.73422 24.1381ZM1.56023 24.1381H7.81644L32.7036 1.36185H26.2333L1.56023 24.1381ZM28.1912 6.33317H34.4627L39.8623 1.36185H33.6214L28.1912 6.33317ZM35.3652 6.33317H41.5449L46.9445 1.36185H40.7648L35.3652 6.33317Z" fill="white"/>
</svg>
