<?xml version="1.0" encoding="UTF-8" standalone="no"?>
<svg
   xmlns="http://www.w3.org/2000/svg"
   class="icon icon--logo-prangl"
   viewBox="0 0 182 26"
   version="1.1"
   id="svg20">
  <g
     fill="none"
     fill-rule="evenodd"
     id="g18">
    <path
       d="M37 0h-8.3L0 25.8h8.1z"
       fill="#BCE4FA"
       id="path10" />
    <path
       d="M24.3 25.8l12.1-11h-6v-1.6l-14 12.6zM46.2 6.2L53 0h-8l-6.8 6.2z"
       fill="#002169"
       id="path12" />
    <path
       d="M38 6.2L45 0h-8L8.2 25.8h8L30.3 13V6z"
       fill="#0093D6"
       id="path14" />
    <path
       d="M56.7 14.9H41v10.8h7.4v-6.4h13.3c.8 0 1.5-.3 2-.8.6-.5 1-1.3 1-2v-5.4c-.1-.7-.4-1.4-1-2a3 3 0 00-2-.8h-29v4.5h24.1c.6 0 1 .5.9 1 0 .6-.3 1-.9 1m9.4-6.5h20.7a3 3 0 012 .8c.6.6.9 1.3.9 2v5.4c0 .7-.3 1.5-.8 2a3 3 0 01-2.1.8h-1.4l1.3 2h20l-5.1-7.2-4.3 5.6h-7.7l12-15.6 12.6 16.7V8.3h7.4L130 17V8.3h7.4v17.4H130l-8.3-8.5v8.5H82l-4.7-6.4h-3.8v6.4h-7.3V8.3zm7.3 6.6H82c.5 0 1-.5.9-1 0-1.1-.9-1.1-.9-1.1h-8.5v2zm97.8-6.5h-29.4c-.8 0-1.6.3-2.1.8-.5.6-.8 1.2-.8 2v11.7c0 .8.3 1.5 1 2 .4.6 1.2.8 1.9.8h17c.7 0 1.5-.3 2-.8s.8-1.2.8-2v-8h-12v4.4h4.7v1c0 .2-.1.5-.3.6-.2.2-.5.3-.8.3h-5.8a1 1 0 01-.7-.2 1 1 0 01-.4-.8v-6.4a1.1 1.1 0 011-1H164v13h18v-4.6h-10.7V8.4z"
       fill="#002169"
       id="path16" />
  </g>
</svg>
